HIERARCHY
ROOT hip
{
  OFFSET 0 0 0
  CHANNELS 6 Xposition Yposition Zposition Zrotation Yrotation Xrotation
  JOINT abdomen
  {
    OFFSET 0 20.6881 -0.73152
    CHANNELS 3 Zrotation Xrotation Yrotation
    JOINT chest
    {
      OFFSET 0 11.7043 -0.48768
      CHANNELS 3 Zrotation Xrotation Yrotation
      JOINT neck
      {
        OFFSET 0 22.1894 -2.19456
        CHANNELS 3 Zrotation Xrotation Yrotation
        JOINT head
        {
          OFFSET -0.24384 7.07133 1.2192
          CHANNELS 3 Zrotation Xrotation Yrotation
          JOINT leftEye
          {
            OFFSET 4.14528 8.04674 8.04672
            CHANNELS 3 Zrotation Xrotation Yrotation
            End Site
            {
              OFFSET 1 0 0
            }
          }
          JOINT rightEye
          {
            OFFSET -3.6576 8.04674 8.04672
            CHANNELS 3 Zrotation Xrotation Yrotation
            End Site
            {
              OFFSET 1 0 0
            }
          }
        }
      }
      JOINT rCollar
      {
        OFFSET -2.68224 19.2634 -4.8768
        CHANNELS 3 Zrotation Xrotation Yrotation
        JOINT rShldr
        {
          OFFSET -8.77824 -1.95073 1.46304
          CHANNELS 3 Zrotation Xrotation Yrotation
          JOINT rForeArm
          {
            OFFSET -28.1742 -1.7115 0.48768
            CHANNELS 3 Zrotation Xrotation Yrotation
            JOINT rHand
            {
              OFFSET -22.5879 0.773209 7.07136
              CHANNELS 3 Zrotation Xrotation Yrotation
              JOINT rThumb1
              {
                OFFSET -1.2192 -0.487915 3.41376
                CHANNELS 3 Zrotation Xrotation Yrotation
                JOINT rThumb2
                {
                  OFFSET -3.37035 -0.52449 3.41376
                  CHANNELS 3 Zrotation Xrotation Yrotation
                  End Site
                  {
                    OFFSET -1.78271 -1.18214 1.43049
                  }
                }
              }
              JOINT rIndex1
              {
                OFFSET -7.75947 0.938293 5.60832
                CHANNELS 3 Zrotation Xrotation Yrotation
                JOINT rIndex2
                {
                  OFFSET -2.54057 -0.884171 1.56538
                  CHANNELS 3 Zrotation Xrotation Yrotation
                  End Site
                  {
                    OFFSET -1.62519 -0.234802 1.16502
                  }
                }
              }
              JOINT rMid1
              {
                OFFSET -8.24714 1.18213 3.41376
                CHANNELS 3 Zrotation Xrotation Yrotation
                JOINT rMid2
                {
                  OFFSET -3.10165 -0.590103 1.0647
                  CHANNELS 3 Zrotation Xrotation Yrotation
                  End Site
                  {
                    OFFSET -2.48547 -0.328903 0.83742
                  }
                }
              }
              JOINT rRing1
              {
                OFFSET -8.82822 0.546677 1.51678
                CHANNELS 3 Zrotation Xrotation Yrotation
                JOINT rRing2
                {
                  OFFSET -2.60934 -0.819778 -0.0198488
                  CHANNELS 3 Zrotation Xrotation Yrotation
                  End Site
                  {
                    OFFSET -2.33842 -0.294052 0.168128
                  }
                }
              }
              JOINT rPinky1
              {
                OFFSET -8.27202 -0.0477905 -0.4584
                CHANNELS 3 Zrotation Xrotation Yrotation
                JOINT rPinky2
                {
                  OFFSET -1.82734 -0.647385 -0.700984
                  CHANNELS 3 Zrotation Xrotation Yrotation
                  End Site
                  {
                    OFFSET -1.69225 -0.51767 -0.607171
                  }
                }
              }
            }
          }
        }
      }
      JOINT lCollar
      {
        OFFSET 2.68224 19.2634 -4.8768
        CHANNELS 3 Zrotation Xrotation Yrotation
        JOINT lShldr
        {
          OFFSET 8.77824 -1.95073 1.46304
          CHANNELS 3 Zrotation Xrotation Yrotation
          JOINT lForeArm
          {
            OFFSET 28.1742 -1.7115 0.48768
            CHANNELS 3 Zrotation Xrotation Yrotation
            JOINT lHand
            {
              OFFSET 22.5879 0.773209 7.07136
              CHANNELS 3 Zrotation Xrotation Yrotation
              JOINT lThumb1
              {
                OFFSET 1.2192 -0.487915 3.41376
                CHANNELS 3 Zrotation Xrotation Yrotation
                JOINT lThumb2
                {
                  OFFSET 3.37035 -0.52449 3.41376
                  CHANNELS 3 Zrotation Xrotation Yrotation
                  End Site
                  {
                    OFFSET 1.78271 -1.18214 1.43049
                  }
                }
              }
              JOINT lIndex1
              {
                OFFSET 7.75947 0.938293 5.60832
                CHANNELS 3 Zrotation Xrotation Yrotation
                JOINT lIndex2
                {
                  OFFSET 2.54057 -0.884171 1.56538
                  CHANNELS 3 Zrotation Xrotation Yrotation
                  End Site
                  {
                    OFFSET 1.62519 -0.234802 1.16502
                  }
                }
              }
              JOINT lMid1
              {
                OFFSET 8.24714 1.18213 3.41376
                CHANNELS 3 Zrotation Xrotation Yrotation
                JOINT lMid2
                {
                  OFFSET 3.10165 -0.590103 1.0647
                  CHANNELS 3 Zrotation Xrotation Yrotation
                  End Site
                  {
                    OFFSET 2.48547 -0.328903 0.83742
                  }
                }
              }
              JOINT lRing1
              {
                OFFSET 8.82822 0.546677 1.51678
                CHANNELS 3 Zrotation Xrotation Yrotation
                JOINT lRing2
                {
                  OFFSET 2.60934 -0.819778 -0.0198488
                  CHANNELS 3 Zrotation Xrotation Yrotation
                  End Site
                  {
                    OFFSET 2.33842 -0.294052 0.168128
                  }
                }
              }
              JOINT lPinky1
              {
                OFFSET 8.27202 -0.0477905 -0.4584
                CHANNELS 3 Zrotation Xrotation Yrotation
                JOINT lPinky2
                {
                  OFFSET 1.82734 -0.647385 -0.700984
                  CHANNELS 3 Zrotation Xrotation Yrotation
                  End Site
                  {
                    OFFSET 1.69225 -0.51767 -0.607171
                  }
                }
              }
            }
          }
        }
      }
    }
  }
  JOINT rButtock
  {
    OFFSET -8.77824 4.35084 1.2192
    CHANNELS 3 Zrotation Xrotation Yrotation
    JOINT rThigh
    {
      OFFSET 0 -1.70687 -2.19456
      CHANNELS 3 Zrotation Xrotation Yrotation
      JOINT rShin
      {
        OFFSET 0 -36.8199 0.73152
        CHANNELS 3 Zrotation Xrotation Yrotation
        JOINT rFoot
        {
          OFFSET 0.73152 -45.1104 -5.12064
          CHANNELS 3 Zrotation Xrotation Yrotation
          End Site
          {
            OFFSET -1.1221 -3.69964 12.103
          }
        }
      }
    }
  }
  JOINT lButtock
  {
    OFFSET 8.77824 4.35084 1.2192
    CHANNELS 3 Zrotation Xrotation Yrotation
    JOINT lThigh
    {
      OFFSET 0 -1.70687 -2.19456
      CHANNELS 3 Zrotation Xrotation Yrotation
      JOINT lShin
      {
        OFFSET 0 -36.8199 0.73152
        CHANNELS 3 Zrotation Xrotation Yrotation
        JOINT lFoot
        {
          OFFSET -0.73152 -45.1104 -5.12064
          CHANNELS 3 Zrotation Xrotation Yrotation
          End Site
          {
            OFFSET 1.1221 -3.69964 12.103
          }
        }
      }
    }
  }
}
MOTION
Frames:	4
Frame Time:	0.00833333
-31.6644 83.4221 -153.198 0.0 0.0 0.0 -2.71685 0.00115922 -0.0732875 -0.748381 0.0144131 -0.129496 1.36916e-14 7.95139e-16 -4.47266e-16 4.07384e-14 3.18055e-15 -1.44429e-15 -0.0 0.0 0.0 -0.0 0.0 0.0 6.65808e-15 -1.70831e-17 -1.49089e-16 1.42356e-13 -7.26806e-16 -3.57812e-15 2.43362e-12 -7.44449e-13 -1.04958e-13 2.79563e-11 6.56809e-13 -9.82791e-13 6.59319e-11 -1.83992e-13 -2.35997e-12 1.13852e-10 -3.18055e-13 -4.08701e-12 6.59381e-11 -1.82484e-13 -2.37269e-12 7.73091 5.47488 0.417314 6.59331e-11 -1.83677e-13 -2.35679e-12 2.90554 0.965183 0.102902 6.59385e-11 -1.83379e-13 -2.36156e-12 10.2786 0.731801 0.0259123 6.59269e-11 -1.84075e-13 -2.35361e-12 2.22167 -0.733487 -0.20892 6.56156e-15 -2.09656e-17 -3.47873e-16 1.3762e-13 -5.15598e-16 -5.36719e-15 2.44356e-12 7.13239e-13 -1.27222e-13 2.78995e-11 -7.8751e-13 -9.57347e-13 6.58439e-11 -1.61664e-13 -2.36951e-12 1.13721e-10 -2.79889e-13 -4.08304e-12 6.58399e-11 -1.63401e-13 -2.36633e-12 -7.73091 5.47488 -0.417314 6.58446e-11 -1.62109e-13 -2.37269e-12 -2.90554 0.965183 -0.102902 6.58361e-11 -1.61513e-13 -2.36554e-12 -10.2786 0.731801 -0.0259123 6.58538e-11 -1.59425e-13 -2.37269e-12 -2.22167 -0.733487 0.20892 -2.03217e-16 0.0 -3.88251e-19 -1.56629 -1.93222 0.00883179 -0.00885867 -2.07861 -0.0729268 -0.496855 3.9993 0.13809 2.03217e-16 0.0 3.88251e-19 -2.55933 -8.62931 0.275732 -0.00720704 10.0515 -0.186888 0.546624 -1.43362 -0.0320096
-32.3683 81.683 -154.171 -0.7313 -5.5622 2.8099 -1.96384 1.4374 -1.09036 -0.978488 1.10109 -0.409433 -2.58142 4.70822 -2.3772 7.48131 -11.2395 -2.2823 -0.0 0.0 0.0 -0.0 0.0 0.0 -8.32651e-15 6.44436e-14 7.15116e-14 19.6595 6.77451 1.27002 -3.96592 -1.75377 6.24636 0.000666238 0.584664 0.0821546 2.97281e-11 7.45893e-10 -1.88958e-10 5.01995e-11 1.29081e-09 -3.26085e-10 2.97334e-11 7.45894e-10 -1.88968e-10 7.73091 5.47488 0.417314 2.97282e-11 7.45893e-10 -1.88956e-10 2.90554 0.965183 0.102902 2.97359e-11 7.45893e-10 -1.88958e-10 10.2786 0.731801 0.0259123 2.97235e-11 7.45892e-10 -1.88951e-10 2.22167 -0.733487 -0.20892 -8.38358e-15 6.44406e-14 7.13606e-14 -21.3909 1.38574 0.850211 2.61741 -0.985434 -4.28287 -0.000308629 0.404893 -0.0568997 8.15128e-11 -3.49349e-10 1.07382e-09 1.43206e-10 -6.05476e-10 1.85644e-09 8.15092e-11 -3.4935e-10 1.07382e-09 -7.73091 5.47488 -0.417314 8.15137e-11 -3.4935e-10 1.07381e-09 -2.90554 0.965183 -0.102902 8.15044e-11 -3.49349e-10 1.07382e-09 -10.2786 0.731801 -0.0259123 8.15217e-11 -3.49347e-10 1.07381e-09 -2.22167 -0.733487 0.20892 -2.03217e-16 0.0 -3.88251e-19 -2.62187 -7.09372 -1.64021 0.0435458 9.42147 0.138097 -1.02426 -2.77154 -3.55102 2.03217e-16 0.0 3.88251e-19 0.0885074 -13.0548 5.21841 0.0100884 20.5076 -0.347013 0.6597 -5.42132 1.04554
-32.3895 81.6957 -154.175 -0.7026 -5.4471 2.84 -1.10189 2.95888 -2.16177 -1.21661 2.25098 -0.703493 -4.87559 9.65048 -4.9476 14.3291 -23.0504 -5.0179 -0.0 0.0 0.0 -0.0 0.0 0.0 -2.56274e-14 1.36359e-13 1.53285e-13 40.1103 13.9086 2.67902 -7.72687 -3.52527 12.8402 -0.000481077 1.21638 0.170951 -1.32191e-11 1.57949e-09 -3.98843e-10 -2.52635e-11 2.73337e-09 -6.88282e-10 -1.32145e-11 1.57949e-09 -3.9885e-10 7.73091 5.47488 0.417314 -1.32202e-11 1.57949e-09 -3.98841e-10 2.90554 0.965183 0.102902 -1.32099e-11 1.57949e-09 -3.98841e-10 10.2786 0.731801 0.0259123 -1.3223e-11 1.57948e-09 -3.98834e-10 2.22167 -0.733487 -0.20892 -2.5642e-14 1.36357e-13 1.53188e-13 -44.0467 2.86579 1.74435 5.22919 -2.01121 -8.82196 0.000250419 0.820246 -0.115279 1.06789e-10 -7.42749e-10 2.2817e-09 1.89622e-10 -1.28728e-09 3.94463e-09 1.06786e-10 -7.4275e-10 2.28171e-09 -7.73091 5.47488 -0.417314 1.0679e-10 -7.4275e-10 2.2817e-09 -2.90554 0.965183 -0.102902 1.0678e-10 -7.42749e-10 2.2817e-09 -10.2786 0.731801 -0.0259123 1.06797e-10 -7.42748e-10 2.28169e-09 -2.22167 -0.733487 0.20892 -2.03217e-16 0.0 -3.88251e-19 -4.06225 -12.5371 -3.44324 0.00127822 21.5754 0.384042 -2.53686 -9.85369 -7.54994 2.03217e-16 0.0 3.88251e-19 3.77981 -17.5873 10.699 0.104735 31.6139 -0.557167 0.9359 -9.60575 2.17153
-32.417 81.7187 -154.156 -0.6805 -5.5766 2.7619 -0.304562 4.30425 -3.13231 -1.4068 3.27405 -0.970665 -6.54499 14.0259 -7.32711 19.3123 -33.4823 -8.05976 -0.0 0.0 0.0 -0.0 0.0 0.0 -3.82957e-14 1.93365e-13 2.14833e-13 58.0278 20.2822 4.03394 -10.7696 -5.01167 18.8048 -0.00303327 1.75398 0.246567 -4.26796e-11 2.23805e-09 -5.62154e-10 -7.71061e-11 3.87306e-09 -9.7008e-10 -4.26758e-11 2.23805e-09 -5.62159e-10 7.73091 5.47488 0.417314 -4.26818e-11 2.23805e-09 -5.62154e-10 2.90554 0.965183 0.102902 -4.26693e-11 2.23805e-09 -5.62152e-10 10.2786 0.731801 0.0259123 -4.26832e-11 2.23805e-09 -5.62145e-10 2.22167 -0.733487 -0.20892 -3.82739e-14 1.93364e-13 2.14778e-13 -64.2964 4.15355 2.55661 7.41391 -2.89031 -12.8633 0.00148714 1.21468 -0.170733 1.12851e-10 -1.04772e-09 3.22619e-09 2.02175e-10 -1.81587e-09 5.5775e-09 1.12848e-10 -1.04772e-09 3.2262e-09 -7.73091 5.47488 -0.417314 1.12852e-10 -1.04773e-09 3.22618e-09 -2.90554 0.965183 -0.102902 1.12841e-10 -1.04772e-09 3.22619e-09 -10.2786 0.731801 -0.0259123 1.12858e-10 -1.04772e-09 3.22618e-09 -2.22167 -0.733487 0.20892 -2.03217e-16 0.0 -3.88251e-19 -5.66052 -17.3596 -5.13509 -0.141274 32.42 0.656839 -4.75811 -16.0257 -11.3632 2.03217e-16 0.0 3.88251e-19 7.79523 -21.3044 15.8101 0.280733 41.418 -0.809481 1.34656 -13.3783 3.27557
